<?xml version="1.0" encoding="utf-8"?>
<!-- Generator: Adobe Illustrator 23.0.1, SVG Export Plug-In . SVG Version: 6.00 Build 0)  -->
<svg version="1.1" xmlns="http://www.w3.org/2000/svg" xmlns:xlink="http://www.w3.org/1999/xlink" x="0px" y="0px"
	 viewBox="0 0 1920 1080" style="enable-background:new 0 0 1920 1080;" xml:space="preserve">
<style type="text/css">
	.st0{fill:#FFD700;}
	.st1{fill:none;}
</style>
<g id="Layer_1">
</g>
<g id="dots">
	<g>
		<path class="st0" d="M785.9,220.54C797,221,808,222,819,223c3,0,6,2,9,2c31,3,60,9,90,17c72,20,140,48,214,47c6,0,13,0,19,0
			c9-1,18-3,28-4c9-2,18-5,27-7c15-5,29-10,43-16c55-24,109-53,170-56c30-1,60,4,87,20c1,1,2,2,3,3c44,28,61,79,63,127
			c0,19-2,37-7,56c-4,17-7,33-13,50c-6,20-9,40-9,61c2,54,32,101,51,151c14,39,23,82,4,121c-23,44-71,61-118,69c-22,3-44,4-66,3
			c-11-1-22-2-34-3c-21-3-41-6-62-11c-3-1-6-2-9-3c-7-2-13-2-20-4c-43-12-83-22-127-29c-16-3-32-6-48-7c-5,0-9,0-14-1
			c-71-5-140-7-211-4c-48,3-93,14-142,25c-64,13-129,18-184-23c-17-13-30-29-38-49c-7-18-9-37-10-56c-2-58,7-115,26-170
			c14-38,27-73,35-114c3-16,4-31,5-47c1-24-2-46-4-70c-2-20-2-40,9-57c8-11,18-18,31-22c36-10,73-8,108.76-4.91"/>
	</g>
	<g>
		<path class="st1" d="M717.51,216.4c23.42,1.08,46.82,2.6,70.18,4.56"/>
	</g>
	<g>
	</g>
	<g>
	</g>
	<g>
	</g>
	<g>
	</g>
	<g>
	</g>
	<g>
	</g>
	<g>
	</g>
	<g>
	</g>
	<g>
	</g>
	<g>
	</g>
	<g>
	</g>
	<g>
	</g>
	<g>
	</g>
	<g>
	</g>
	<g>
	</g>
	<g>
	</g>
</g>
</svg>
