<svg id="green_background" data-name="green background" xmlns="http://www.w3.org/2000/svg" viewBox="0 0 2215.34 716.86"><defs><style>.cls-1{fill:#b5d337;}.cls-2{fill:#adc136;}</style></defs><title>green background</title><path class="cls-1" d="M-14,457.67c103,64.19,210.21,121.93,322.46,168,40.89,16.78,82.4,32,124.24,46.21,97.05,33,203.89,60.37,300.35,25.74,25.49-9.16,49.7-22.52,76.33-27.48,67.1-12.48,136.89,30.3,202.66,12.09,22.57-6.25,42.66-19.31,64.82-26.89,49.57-17,104.53-5.18,155.81-15.89,49.75-10.38,93.11-41.27,142.38-53.7,37.39-9.43,76.56-7.85,114.89-12,177.63-19.32,331.51-160.51,509.94-151.09,12.84,10.21,27.59,21.23,40.44,31.44,116.21,92.37,81.89,294,16.94,427.48C2040.1,916.74,2017.08,951,1982.9,970c-23.76,13.21-51.11,18.09-77.9,22.7-145.7,25.11-291.91,48.34-439.27,60.5-143,11.79-286.53,13.12-430,14.45l-665.07,6.15c-80.08.74-160.17,1.48-240.24.07-73.76-1.3-158-9.71-201.55-69.26-31.72-43.39-31.8-102.49-20.79-155.1s31.69-103.24,37.3-156.7C-46,611.5-66,520.76-14,457.67Z" transform="translate(98.51 -422.19)"/><g id="green_background_shade" data-name="green background shade"><path class="cls-2" d="M1263,654.9c57.2,37.79,85.77.2,153.94,7.48,3,.32,6.17.76,8.61,2.56,6,4.39,3.93,14.53-2,19s-13.81,4.86-21.19,5.08l20.91,29.41c-16.26,2.82-23.49,24-17.92,39.58s19.43,26.34,32.62,36.27c-67.55,47.57-173.79,9.29-234.83,65a470.18,470.18,0,0,0,99.1,30.15c-.29,20.36,24.26,32.51,44.54,30.71s39-12.08,59.26-14.3c40.27-4.4,81.51,23.37,119.71,9.9,11.89,21.83,2.06,52.65-20.27,63.57,7.79,30.74,45.08,41.6,76.31,47.14,9.8,17.44,1.6,40.65-13.54,53.73s-35.4,18.27-55,22.2c-72.36,14.51-146.48,17.31-220.23,20.07-358.71,13.43-718.1,26.84-1076.41,5.28-12.09-.73-24.73-1.66-35.09-7.94S164.05,1100,168.94,1089c20,6.17,41.46-4.43,57.58-17.84s29.91-30.1,48.58-39.63c17.57-9,37.82-10.75,56.74-16.34s38.32-17.06,43.74-36c1.74-6.08,1.92-12.63,4.49-18.41,10.15-22.85,44.18-16.76,66.9-27.2,31.36-14.41,36.45-58.49,63.58-79.83,19.23-15.14,45.64-16,69.1-23,92.11-27.47,138.91-151.25,234.5-161.34,20.4-2.15,43.26-.94,63.48,2.53,33.63,5.78,47.12,12,81.56,14.17,10.33.65,40.38,2,50-1.48,12.6-4.53,21.19-7.51,32.86-14.09,62.35-35.17,174.32,18.77,221-15.57" transform="translate(98.51 -422.19)"/></g></svg>