<svg xmlns="http://www.w3.org/2000/svg" viewBox="0 0 2111.05 717.85"><defs><style>.cls-1{fill:#68dfe5;}.cls-2{fill:#fffffd;}.cls-3{fill:#fff;}</style></defs><title>mountain</title><g id="Layer_2" data-name="Layer 2"><path class="cls-1" d="M-24.74,389.93l58.5-54.11c4.77,24.78,32.06,40,57.3,39.75s48.78-11.92,71.27-23.37c62.25,52.15,169.69-38.88,233.85,10.91,9.67,7.51,17.55,17.93,29.07,22.1s28.14-3.26,26.33-15.37c33,21.52,77.62,9.51,111.53-10.54s64.24-47.68,102.1-58.52c15.46,20.14,52.39,16.16,63.2-6.82L752,308.9l33.68-24.67c46.59.83,92.7-25.43,115.77-65.93,37.11,41.64,75.59,84.32,125.84,108.5s115.81,25.47,157.21-11.9c1.46,19,25.6,27,44.48,24.77s38.43-9.62,56.23-3c20.46,7.63,36.7,32.91,57.55,26.42,14.33-4.46,21.13-22.59,35.57-26.67,9.57-2.71,19.61,1.61,29.54,2,20.71.91,37.89-14.6,54.34-27.21a251.38,251.38,0,0,1,122.5-49.84A601.07,601.07,0,0,0,1815,366c50.47,10.94,108.86,19.37,136.78,62.82,13.28,20.66,16.92,45.88,20.14,70.23q25.71,194.4,42.79,389.82c-358.45,56.7-723.53,49.69-1086.37,42.53L-96.33,911.2l19.08-324.53c4.16-70.78,10.73-147.56,58.43-200" transform="translate(96.33 -218.3)"/></g><g id="white_snow" data-name="white snow"><path class="cls-2" d="M14.79,360.71a7.55,7.55,0,0,1-.69,2.84l3.86-1.5-.87,6.41A45.84,45.84,0,0,0,33.23,368c-3,6.29.64,14-1.63,20.59a14.32,14.32,0,0,1,13.21-4.24c2.81.59,6,1.94,8.27.13-.76,5.12,2.52,9.88,5.74,13.93s6.73,8.53,6.52,13.7l5.92-11.8a14.48,14.48,0,0,1,2.41-3.78c1.14-1.16,2.65-1.92,3.8-3.07,3.16-3.15,3.09-8.55,6.27-11.68,3.55-3.5,9.9-2.15,13.15-5.93-10.17.94-23.18-.55-33.52-5.5s-19.53-12-25.1-22c-1.55-2.77-3.77-6.24-4.61-11.91-1.89,4-4.5,4.31-7.82,7.62-4.92,4.91-15.31,14-21,19C5.5,363,14.8,360.54,14.79,360.71Z" transform="translate(96.33 -218.3)"/><path class="cls-3" d="M92.6,383.54a7.32,7.32,0,0,0-1.48,3.15,3.2,3.2,0,0,0,1.18,3.11,3.49,3.49,0,0,0,2.24.49c3.69-.3,6.31-4,9.92-4.76a34.8,34.8,0,0,1,.19,5.59,46.44,46.44,0,0,0,8.48-1c-.51-4.9,3.47-9,7.13-12.28h-2.61c-.38,0-.83,0-1-.36-.29-.47.18-1,.61-1.37l8.18-6.55c-6.7,1.89-13.54,3.47-20.19,5.49a25,25,0,0,0-5.83,2.54C98.35,378.2,93.14,383.54,92.6,383.54Z" transform="translate(96.33 -218.3)"/><path class="cls-3" d="M125.9,379.74c.83.86,2.16-1,3.29-.6.86.27.84,1.48.61,2.35a23,23,0,0,1-3.73,7.68l27.76-15.6-3.89.59c1.69-4,5.65-6.41,9.53-8.25s8.06-3.41,11.05-6.51c-10.43-1-20.52,3.46-30.06,7.78.56-.25,1.38-2.16,2.18-2.63-3.6,0-5.29,3.79-7.36,6.16A78.47,78.47,0,0,1,125.9,379.74Z" transform="translate(96.33 -218.3)"/><path class="cls-3" d="M170.74,380.85a118,118,0,0,1,19.58-7l-.42,11.57a54.52,54.52,0,0,1,20.63-10.05l-.87,1.76a70.4,70.4,0,0,0,12.1-3.33l.07,5.69,6.92.25a32.65,32.65,0,0,0,10.82,7.95,2.14,2.14,0,0,0,1.55.26c.51-.18.78-1,.33-1.27a224.13,224.13,0,0,1,18.33,29.1l1.36-2.23a176.2,176.2,0,0,1,31.51,29.56,89.49,89.49,0,0,0-18.42-31.18c1.4.49,2.88-.9,3.06-2.37a7.48,7.48,0,0,0-1.17-4.2l-10.71-21,16.74,16.82a6.73,6.73,0,0,0-1-6.42,4.52,4.52,0,0,0,4.05,1.72,64,64,0,0,0-10.79-20.55c1.87-.47,3.5,1.17,5.05,2.32s4.31,1.54,4.93-.28a89.67,89.67,0,0,0,25.65,7.41,5.67,5.67,0,0,1-5.3-8.92l-10.36-3.52c-1.84-.62-3.92-1.48-4.51-3.34-.93-2.91,2.35-5.19,4.64-7.21,2.53-2.22,4.39-4.43,5-7.76-8.07,2.37-16.33,3.62-24.52,5.55-4.92,1.16-9.87,2.24-14.82,3.31-3.29.72-6.57,1.44-9.87,2.08q-6.12,1.2-12.29,2a205.94,205.94,0,0,1-40.71,1.15,27.41,27.41,0,0,0-13.48,2.34,34.69,34.69,0,0,0-7.14,4.1C174.83,376.57,172.7,380,170.74,380.85Z" transform="translate(96.33 -218.3)"/><path class="cls-3" d="M380.45,363.32a19.13,19.13,0,0,1,16.44,11.73c-7.22.22-14.51.44-21.65-.71A56.89,56.89,0,0,1,363,371c.63,3.32,3.56,5.73,6.62,7.16s6.42,2.16,9.4,3.75,5.49,4,8.58,5.34c4,1.73,8.61,1.59,12.52,3.49,4.16,2,6.93,6,9.5,9.86l9.86,14.71c-.21-1.8,1.32-3.44,3.05-4a11.65,11.65,0,0,1,5.38,0l28.66,4.72c11.54,1.91,23.1,3.81,34.43,6.74,6.82,1.76,13.74,3.91,20.75,3.22-6.9.73-13.49-2.65-19.59-5.94a15,15,0,0,0,6.1-3.51c-8.88-4.67-17.94-9.4-27.81-11.23-7-1.28-14.11-1.09-21.05-2.46a3.79,3.79,0,0,1-2.09-.91,4.86,4.86,0,0,1-.83-2.73c-.74-4.95-5.23-8.52-9.88-10.39s-9.71-2.54-14.29-4.55c-7.14-3.13-12.48-9.18-18.22-14.45-6.8-6.22-14.92-10.63-23.12-14.82-1.8-.92-9-3.29-7.84-2.09A53.68,53.68,0,0,1,380.45,363.32Z" transform="translate(96.33 -218.3)"/><path class="cls-3" d="M488.93,402.55c4.35-8.95,24-1.47,30.68.14q9.71,2.35,19.16,5.57c5.76,2,11.94,5.75,17.84,6.94a94.1,94.1,0,0,0-19.38-1.86c5.16,7.05,14.56,9.19,23.11,11q28.23,5.82,56,13.36c-11.72.06-23.58.1-35-2.64-5-1.21-9.87-2.94-14.84-4.29-15.61-4.24-32.67-4.87-46.35-13.5l-3.87,9.89-9.9-15.93a7.19,7.19,0,0,0-1.82-2.2,7.91,7.91,0,0,0-3.3-1c-4.28-.72-9.17-2.12-12.7-4.71A6.58,6.58,0,0,1,488.93,402.55Z" transform="translate(96.33 -218.3)"/><path class="cls-3" d="M461.13,384.36a15.8,15.8,0,0,1,4.19.81,9.8,9.8,0,0,1,2.66,2.06l14.68,14.34a11.43,11.43,0,0,1-.57-8.25,27.36,27.36,0,0,0,20.65,2.27,25.56,25.56,0,0,1-5-4.71c8.57-7.11,20.73-8,30.29-13.71-4.55,1.48-9.73,1.17-14.58,2.5-13.83,3.79-28.66,2.78-42.75.1-3.86-.73-7.8-1.76-10.92-4.16-2.89-2.22-5.61-4-8.76-6.27,1.12.2.55,8.28-.31,9.51C448.93,381.45,458.28,383.92,461.13,384.36Z" transform="translate(96.33 -218.3)"/><path class="cls-3" d="M634.58,321.51a118.21,118.21,0,0,0,17-4.18c.08,8.47-6.51,15.33-12.65,21.16L626.4,350.4c14.39-9.61,30.64-16,46.76-22.3l-.58,2.18a41.07,41.07,0,0,0,21.66-6.8,7.78,7.78,0,0,1-5.5,1.32,19.17,19.17,0,0,1,5-8.82c-9.72-2.07-22.83-5.7-26.44-13.09-.61-1.24-1.66-2.45-2.86-1.77-3.95,2.23-12.4,3.82-15.81,6.95q-3.32,3-6.6,6.08C640.6,315.45,636.33,321.22,634.58,321.51Z" transform="translate(96.33 -218.3)"/><path class="cls-3" d="M632.4,362.93l-38.79,27.95q24-13.83,49.28-25.21l-4,3.77,26-14.72.15,3.49c12.29-3.76,22.51-12.18,32.38-20.4q-17.15,5.35-34.1,11.33c6.52-8.16,18.9-9.16,26.32-16.51-3.25,3.23-13.56,4.28-18,5.21-4.12.87-9.34.76-13.05,3-4.36,2.57-7.76,7.7-11.64,11C642.34,355.76,637.37,359.35,632.4,362.93Z" transform="translate(96.33 -218.3)"/><path class="cls-3" d="M717.27,313.16c2.34,1.22,3,4.43,2.14,6.92s-2.85,4.4-4.84,6.13l-.36-6.64c-5.88,3.3-8.68,10.15-10.69,16.59s-3.87,13.36-8.86,17.89c12.25-5.78,22-15.68,33.18-23.34A208,208,0,0,1,749,318.5l-5.11-.26c5.83-8.15,18.76-9.35,23.39-18.23-26.34,17.06-13,5.26-17.87,10.22-4.3-8.41-15.39-7.64-20.58-15.52,1.57,2.39-9.83,12.66-11.64,13.65-2.77,1.5-7.09,2.54-7.22,3.59C709.72,314.37,715.94,312.46,717.27,313.16Z" transform="translate(96.33 -218.3)"/><path class="cls-3" d="M772.13,303.15a22,22,0,0,1,11.52-4.73c-2.25,8.74-7.19,16.53-12.36,23.93-4.38,6.28-9.07,12.48-15.15,17.11a79.09,79.09,0,0,1-11.35,6.83A711.42,711.42,0,0,1,678,377l7.49-1.1c-14.29,15.52-35.11,24.86-46.27,42.76a224.87,224.87,0,0,0,29.16-23.71,7.36,7.36,0,0,1-1.19,5.2c10.27-11.08,29.38-11.24,38-23.62a16.39,16.39,0,0,0-1.66,10.8,18.09,18.09,0,0,1,12-8c3.08-.55,6.52-.38,9-2.34a11.62,11.62,0,0,1-2,4.63,79.27,79.27,0,0,0,10.44-2.38l.1,8.25,3.61-1.73a46.69,46.69,0,0,0,.42,11.39c6.63-3.76,11.09-10.41,14.54-17.21s6.17-14,10.53-20.27l.35,13.85A38.18,38.18,0,0,0,772,359.1l3.34.25-.34,2.32c3.31-6.34,10.8-10.81,11.11-18,.22-5.14-3.55-9.87-3.15-15,.2-2.59,1.46-5,2.69-7.27l9.57-17.88a11.53,11.53,0,0,1-6.29-8.73c-.48-3.7-5.56-6.59-2.72-9-1.23-.46-.62.09-3.53,2.43-2.44,1.95-5.51,3.42-7.4,5.9C773.65,296.27,773.74,301.86,772.13,303.15Z" transform="translate(96.33 -218.3)"/><path class="cls-3" d="M858.06,275.64l-10.43,21.53,17.89-16,2.56,23.09a153.76,153.76,0,0,1,15.66-29.32,21.21,21.21,0,0,1,2.09,8.78,31.26,31.26,0,0,0,11.74-4.29,26.31,26.31,0,0,0,14.73,3.34c-.21,3.25-3.17,5.71-6.26,6.7s-6.42.92-9.62,1.47a25.32,25.32,0,0,0-14.65,8.2c6.81-2.28,14.24,1.54,19.36,6.56s8.94,11.32,14.45,15.91c2,1.66,4.21,3.11,5.8,5.15.77,1,1.49,2.19,2.7,2.51,2.5.65,3.93-2.65,5.68-4.56,3.91-4.28,10.83-1.7,16.48-.35,1.35.32,2.89.52,4-.28.92-.63,1.37-1.78,2.25-2.48,1.54-1.23,3.79-.7,5.66-.09,25.24,8.27,49.06,21.47,75.3,25.57,7.38,1.16,15.31,1.73,21.29,6.22,3.18,2.4,6,5.95,9.93,6.29a27.75,27.75,0,0,0,4.88-.43c9.45-.79,17.91,8.51,27.22,6.69a135.36,135.36,0,0,0-30.72-12.16c-.85-1.58.65-3.6,2.41-4s3.56.25,5.28.79c13.14,4.14,28.89,2.82,40-5.32-8.31,1-17.42.07-25.77-.5A181.46,181.46,0,0,1,991.25,308c-26.34-20.14-51.27-45.37-75-70.53-5.75-6.11-9-10.81-14.73-16.91,1.28,1.37-17.75,22.77-19.73,25a124.22,124.22,0,0,1-12.94,12.5c-3.75,3.13-11,5.16-13.84,8.77,1.42,2.16,3.54-.84,4.53,2.16C860.26,271.08,858.9,273.89,858.06,275.64Z" transform="translate(96.33 -218.3)"/><path class="cls-3" d="M958.73,340.22c1.09,2.09,4.08,2.18,5.9,3.69a6,6,0,0,1,1.64,5.87,17.6,17.6,0,0,1-2.76,5.74,57.38,57.38,0,0,1,10.4.53c1.71.24,3.94,1.45,3.25,3-5.1,2.65-11.14,2.42-16.87,2.93-13.68,1.24-26.49,7-39,12.65l2.57-.19c-1.76,3-5.78,3.35-9.15,4.07-12.39,2.65-21.31,13.52-33,18.51,12.25-4.64,24.5-9.29,36.45-14.65,13-5.82,25.81-12.55,39.84-14.78a10.2,10.2,0,0,1-1.9,4.05l35.08-6.48a4.74,4.74,0,0,1-.81,2.63,130,130,0,0,0,21.24-.71q-12.43-5.25-24.68-10.9c-1.26-.59-2.67-1.36-2.92-2.73-.4-2.2,2.53-3.91,2.26-6.13q-15.64-5.37-31.5-10.16a18.86,18.86,0,0,0,5,3.78l-17.76,0" transform="translate(96.33 -218.3)"/><path class="cls-3" d="M1096,383.72c-7.77,8.62-16.31,16.5-24.83,24.36l-29.48,27.21a105.72,105.72,0,0,0,42-21.38,14.34,14.34,0,0,0-6.31-.46,205.76,205.76,0,0,1,23.45-18.92,26.43,26.43,0,0,1,1.19,8.83,57.54,57.54,0,0,0,13.39-10.45c3.6-3.78,6.71-8.08,10.83-11.28,9-7,22-8.09,29.73-16.53a106.68,106.68,0,0,0-30.65,5.56,5,5,0,0,1-.71-4,5.19,5.19,0,0,0-2.07,1.31,12.86,12.86,0,0,1,1.36-9.85c-.4,1-3.71,2.71-4.62,3.55a30.66,30.66,0,0,0-4.26,4.7c.28-.29.64-.62.93-.89C1108.68,366.1,1100.43,378.75,1096,383.72Z" transform="translate(96.33 -218.3)"/><path class="cls-3" d="M1149.79,337.12c-3.91,3.23,3.77-1.09-.84,1-10.6,4.86-11.58,6.9-19.32,15.62l35.65-12.07a8,8,0,0,1-.91,5.38,107.63,107.63,0,0,0,13.32-.17,164,164,0,0,1-.56,19.2c1.85-2.39,3.94-5,6.9-5.54a12.77,12.77,0,0,1,4.44.16l31.23,4.88a14.14,14.14,0,0,1-9.28-11.83,25.72,25.72,0,0,0,15-6.6c-5.29.58-10.37-2-15.09-4.48l-13.15-7c-2.93-1.55-5.94-3.16-8.09-5.69-3.1-3.65-4.43-7.73-5.16-12.46-6.31,1.88-7.56,7.05-15.07,11-6.21,3.25-12.38,6.48-19.07,8.57" transform="translate(96.33 -218.3)"/><path class="cls-3" d="M1271.23,349.26c.09,5.9-1.32,11.7-2.72,17.43.71-2.1,3.06-3.29,5.28-3.34a16.52,16.52,0,0,1,6.41,1.64q20.31,8.29,40.49,16.92l-10.78-20.08c5.1.26,9.21,1,14.3,1.23-5.94-2.29-10.92-7.8-15.18-10.38-9.86-6-17-12.66-26.94-15.84-2.36-.75-13.2-3.42-14.89-1.2-1,1.33,2.21,3.91,2.62,5.12A27.84,27.84,0,0,1,1271.23,349.26Z" transform="translate(96.33 -218.3)"/><path class="cls-3" d="M1288.86,427.31a83.74,83.74,0,0,1,22.33-8.07,99.31,99.31,0,0,0-3.52,27.11,18.77,18.77,0,0,0,6.87-5.69,141.55,141.55,0,0,0,16.57,19c2.1-1.78,5.08-2,7.83-2.18,7.71-.43,15.64-.84,23,1.57,10,3.3,17.62,11.39,24.75,19.18-2.82-1.44-1.45-6.24,1.51-7.36s6.23.13,9.2,1.23a113,113,0,0,0,18.32,5.07c5.63,1.06,11.41,1.71,16.66,4s10.59,6.12,15.9,4.2c-6.9-10.66-21-13.27-32.33-19-19.39-9.76-32.81-30.3-53.76-36l2.76,5.95c-13.6-2.64-24.76-14.86-26.17-28.64l-4.11,3.34c1.12-.91-10.19-15.71-11.46-17.05-2.15-2.28-5-5.25-8-6.36s-2.89-1-3.79,1.9c-2.12,6.94-3.9,12.8-8,19.11A183.52,183.52,0,0,1,1288.86,427.31Z" transform="translate(96.33 -218.3)"/><path class="cls-3" d="M1375.65,351.77a27,27,0,0,1,22.27,20.5l5-12.74c1-2.48,1.95-5.06,1.74-7.7a16.56,16.56,0,0,1-.3-3.7c.59-4.25,6.64-4.18,8.39-8.1-10.17-1.42-20.36-2.53-30.62-3.17a17.93,17.93,0,0,0-4.93.58,14.13,14.13,0,0,0-5.7,2.69c-2.16,1.54-11,8.7-10.44,11.66C1361.7,355.2,1372.92,351.41,1375.65,351.77Z" transform="translate(96.33 -218.3)"/><path class="cls-3" d="M1516.71,285.88c7.22-4.3,14.58-9,22.94-9.92s18,3.6,19.7,11.83c.59-5.22,8.72-4.24,12.75-.88a36.74,36.74,0,0,1,11.68,18l2.83-4.77q15.53,17.49,29.74,36.07c4.88-8.19,15.7-11,25.15-9.79s18.12,5.65,27.08,8.91,19,5.36,27.88,1.9a53,53,0,0,1-12.54,24.25,53.58,53.58,0,0,1,18.36-2.88c1.47,0,3.1.19,4.08,1.29s.49,3.35-1,3.35a56.71,56.71,0,0,1,25.48-2.24c4,.55,8,1.63,10.93,4.36s4.17,7.54,1.9,10.81a125.26,125.26,0,0,1,73.82-4.58c13.92,3.41,27.68,9.27,42,8.18-22.76,20.68-55.2,25.5-85.13,32.59-23.12,5.48-45.75,12.82-68.36,20.15l-83,26.9a154.81,154.81,0,0,1,51.27-.82c3.47.52,7.51,1.64,8.67,5,12.82-9.65,30.08-10.8,46.09-9.7s32.18,4.06,48,1.17q-13.2-1.87-26.29-4.48c-1.92-.39-4.36-1.49-4-3.41.2-1.13,1.31-1.82,2.32-2.36l35-18.87a11.36,11.36,0,0,0-5.14,8A70.06,70.06,0,0,1,1831,416.34a11.09,11.09,0,0,0-6.52,7.92,119.92,119.92,0,0,1,66.23-39.84c-105-22.35-214.09-49.43-298.7-115.59-3.35-2.61-3.84-4.73-8-5.51-3-.55-7.31,1.15-10.31,1.73-21.9,4.23-41.24,9.33-61.5,18.64a304.32,304.32,0,0,0-31.07,16.59c-1.66,1-12.92,7-12.42,8.72.94,3.19,10.31-4.34,11.62-4.88A283.9,283.9,0,0,0,1516.71,285.88Z" transform="translate(96.33 -218.3)"/><path class="cls-3" d="M1004.9,437.46A207.62,207.62,0,0,0,982.75,445a60.34,60.34,0,0,0-12.9,6.65c-4,2.87-7.29,6.52-10.82,9.91a107.45,107.45,0,0,1-26.61,18.71A146.91,146.91,0,0,0,981.94,461c2.69-1.67,5.39-3.45,8.47-4.17a87.31,87.31,0,0,0-16.87,19.45,62.35,62.35,0,0,0,16.17-12c3.14-3.13,6-6.49,9.3-9.51a130.8,130.8,0,0,1,14.89-11.24q17.56-12.12,34.38-25.29a103.59,103.59,0,0,0-47.66,21.48" transform="translate(96.33 -218.3)"/><path class="cls-3" d="M995.4,355.2a26.26,26.26,0,0,1,12.27-1.82,13.11,13.11,0,0,1-2.27,7.33,27.2,27.2,0,0,0,8.68-1.26l-5.79,10,33.82-5c-15,8.34-32.15,12.94-46,23.13,19.22-1.54,36-14.29,55.17-16.68,5.47-.68,11.51-.69,15.69-4.29a268.19,268.19,0,0,1-38-8,9.92,9.92,0,0,0,1.32-4.5c-2.74-1.18-5.94,2.63-8.54,1.19s-1.54-6.29-4.31-7.1c-1.24-.37-2.49.41-3.7.85-1.46.54-2.36-.39-3.71-.31-1.57.09-3.16,1.15-4.58,1.8C1002.08,352.15,998.78,353.82,995.4,355.2Z" transform="translate(96.33 -218.3)"/><path class="cls-3" d="M338.21,387a55.94,55.94,0,0,0,13.09,10.64,5.88,5.88,0,0,1-1.85-4.49l21.48,6.19c6.52,1.88,13.07,3.77,19.81,4.57a138.18,138.18,0,0,1-26.51-9.26,14.59,14.59,0,0,1-3.55-2.12c-.83-.74-1.49-1.65-2.28-2.42a19.41,19.41,0,0,0-4.63-3l-6.15-3.25a39.63,39.63,0,0,0-5.2-2.44,48.19,48.19,0,0,0-6.4-1.57A106.72,106.72,0,0,1,322.5,376c3.13,1.11,4.56,3.6,7.17,5.45,1.29.92,2.61,1,4,1.55C335.51,383.81,336.91,385.59,338.21,387Z" transform="translate(96.33 -218.3)"/></g></svg>