<svg id="Layer_1" data-name="Layer 1" xmlns="http://www.w3.org/2000/svg" xmlns:xlink="http://www.w3.org/1999/xlink" viewBox="0 0 1066.47 219.79"><defs><style>.cls-1{fill:none;}.cls-2{clip-path:url(#clip-path);}.cls-3{fill:#639d91;}.cls-4{fill:#b6d438;}.cls-5{fill:#b5d337;}.cls-6{fill:#cbef37;}</style><clipPath id="clip-path" transform="translate(40 -230.65)"><rect class="cls-1" width="841.89" height="596.92"/></clipPath></defs><title>background green</title><g class="cls-2"><path class="cls-3" d="M776.1,306.73c0,30,49.49,55.73,119.9,66.62V230.65C828.18,247.46,776.1,279.09,776.1,306.73Z" transform="translate(40 -230.65)"/><path class="cls-3" d="M1026.47,374.26c0,39.86-130.43,72.17-291.33,72.17s-291.33-32.31-291.33-72.17S605.7,286.21,766.6,286.21,1026.47,334.41,1026.47,374.26Z" transform="translate(40 -230.65)"/><path class="cls-4" d="M901.76,295.63a695,695,0,0,0-73.17-5.23,80.81,80.81,0,0,0,.27-8.64,37.24,37.24,0,0,0-2.14-12.22,37.4,37.4,0,0,0-2.13,12.22,71.9,71.9,0,0,0,.36,8.57q-5.75-.09-11.6-.1c0-1.09,0-2.35,0-3.69a22.79,22.79,0,0,0-1.3-7.44,22.79,22.79,0,0,0-1.3,7.44c0,1.35,0,2.61.09,3.69h-3c.11-1.79.11-4.1.11-6.6a43.55,43.55,0,0,0-1.15-9.76v-.95a64.46,64.46,0,0,0-3.67-21.05,64.46,64.46,0,0,0-3.67,21.05c0,7.25.18,13.61,1.1,17.39q-10.39.15-20.76.56a72.77,72.77,0,0,0,.37-9.71,39.06,39.06,0,0,0-2.24-12.81,39.21,39.21,0,0,0-2.23,12.81,62,62,0,0,0,.52,9.85c-2,.09-4,.18-6,.29.61-3.15.61-8.77.61-15.15a73.37,73.37,0,0,0-2.24-17.82,73.68,73.68,0,0,0-2.23,17.82c0,6.54.13,12.2.78,15.3q-9.66.53-19.24,1.25v-2.12a37.4,37.4,0,0,0-2.13-12.22,37.4,37.4,0,0,0-2.13,12.22c0,.84,0,1.66,0,2.45q-5.65.45-11.26,1a22.79,22.79,0,0,0-1.25-6.08,23,23,0,0,0-1.26,6.32l-2.89.28v-2.07a43.64,43.64,0,0,0-1.15-9.76v-.94a64.39,64.39,0,0,0-3.67-21.05,64.23,64.23,0,0,0-3.68,21.05c0,5.2.1,9.94.49,13.6q-10,1.08-19.93,2.37c.16-2.15.16-4.83.16-7.73a39.06,39.06,0,0,0-2.24-12.81A39.21,39.21,0,0,0,694.69,290c0,3.16.06,6,.29,8.27q-2.82.38-5.64.78a128.34,128.34,0,0,0,.44-14.06,73.37,73.37,0,0,0-2.24-17.82A73.37,73.37,0,0,0,685.3,285a105.72,105.72,0,0,0,.65,14.54c-109.59,15.94-196.32,49.58-196.32,78.75,0,39.86,130.44,72.16,291.33,72.16a1082.26,1082.26,0,0,0,123.2-6.75Z" transform="translate(40 -230.65)"/><path class="cls-3" d="M-1.2,244.24q-15.65,0-30.8.54V388q15.13.54,30.8.55c138.1,0,250.06-32.31,250.06-72.17S136.9,244.24-1.2,244.24Z" transform="translate(40 -230.65)"/><path class="cls-5" d="M199.42,274.55c0-1.56,0-3.31,0-5.15a37.07,37.07,0,0,0-2.11-12.11,36.91,36.91,0,0,0-2.12,12.11c0,1.62,0,3.15.07,4.56q-5.55-.79-11.24-1.51a22.58,22.58,0,0,0-1.21-5.68,22.22,22.22,0,0,0-1.19,5.38l-2.93-.34v-.55A42.46,42.46,0,0,0,177.45,261a42.16,42.16,0,0,0-1.29,10.25v.24a810.4,810.4,0,0,0-84.09-4.95c.81-1.92.82-6.14.82-11a36.91,36.91,0,0,0-2.12-12.11,37.07,37.07,0,0,0-2.11,12.11c0,4.89.15,9.06.94,11h-5c-2.49,0-5,0-7.43,0a30.15,30.15,0,0,0,.35-6.25,22.5,22.5,0,0,0-1.29-7.38A22.5,22.5,0,0,0,75,260.3a28.34,28.34,0,0,0,.44,6.27l-3.73.05c.47-1.67.47-5.17.47-9.21a42.16,42.16,0,0,0-1.29-10.25,42.16,42.16,0,0,0-1.29,10.25c0,4.09.09,7.58.56,9.23-3.9.07-7.79.15-11.65.27.59-2.13.59-6,.59-10.33A37.09,37.09,0,0,0,57,244.46a36.94,36.94,0,0,0-2.12,12.12c0,4.46.13,8.33.76,10.43-4.09.13-8.16.29-12.18.48a32.44,32.44,0,0,0,.32-6.17,22.73,22.73,0,0,0-1.28-7.38,22.58,22.58,0,0,0-1.29,7.38,28.47,28.47,0,0,0,.43,6.27l-3.77.2c.51-1.61.51-5.2.51-9.35a42.5,42.5,0,0,0-1.28-10.26,42.19,42.19,0,0,0-1.29,10.26c0,4.24.09,7.86.61,9.42A714.73,714.73,0,0,0-40,276.11V401.26c36.69,6.1,79.25,9.59,124.64,9.59,138.11,0,250.06-32.31,250.06-72.17C334.7,310.77,279.78,286.56,199.42,274.55Z" transform="translate(40 -230.65)"/><path class="cls-6" d="M29.35,268.31c-8,.52-15.85,1.14-23.53,1.87C81.05,285.45,145.35,339,186.11,404.65c12-1.53,23.48-3.34,34.38-5.38A190.52,190.52,0,0,0,199,370C154,318.85,94.28,284.05,29.35,268.31Z" transform="translate(40 -230.65)"/></g></svg>