<svg id="Layer_1" data-name="Layer 1" xmlns="http://www.w3.org/2000/svg" xmlns:xlink="http://www.w3.org/1999/xlink" viewBox="0 0 937.61 381"><defs><style>.cls-1{fill:none;}.cls-2{clip-path:url(#clip-path);}.cls-3{fill:#68dfe5;}.cls-4{fill:#ffffd1;}</style><clipPath id="clip-path" transform="translate(47.86 -217.95)"><rect class="cls-1" width="841.89" height="596.92"/></clipPath></defs><title>mountains</title><g class="cls-2"><path class="cls-3" d="M862.71,285.84l-2.65-.63c-4.78-1.1-9.71-1.32-14.44-2.64-3.76-1.06-7.32-2.61-11.2-3.26-6.37-1.07-11.82-4.41-17.77-6.87-5.61-2.33-11.74-4.68-17.87-4.7-7.14,0-14.17.67-21.29-.1a56.75,56.75,0,0,1-20.85-6.84c-4.16-2.28-7.84-5.48-12.17-7.24-3.59-1.45-7.41-2.61-10.84-4.38-3.76-2-6.32-3.61-10.75-3.07-2.9.35-5.08.86-8,.07a29.39,29.39,0,0,0-4.95-1.24c-5.17-.5-11.81-3.05-15.66-6.87a41.87,41.87,0,0,0-6.58-5.75,17.91,17.91,0,0,1-4.33-3.52,16.79,16.79,0,0,0-5.4-3.93c-1.91-1-5.15-3.2-7.26-3.3-1.69-.09-3.16,1.3-4.75,1.7a50.16,50.16,0,0,1-5.61.64,16.41,16.41,0,0,0-3.46.51,4,4,0,0,1-2.51.23q-1.47,3.79-5.18,3.3a3.17,3.17,0,0,0-2.33-.57c-1.21.2-3.42,1.93-4.48,2.36-4.25,1.75-8.41,3.33-12.24,5.84-4.61,3-9.95,4.81-14.89,7.18-3.95,1.89-7.13,4.66-11,6.64-4.86,2.51-10.15.23-15.31.68-5.87.5-12.59,5.26-17.55,8.1-3.13,1.8-4.24,2.63-7.94,1.67-1.53-.4-2-1.3-3.34-2-.89-.49-2.43-.67-3.45-1.14a84.42,84.42,0,0,1-9.08-4.53c-3.6-2.27-6.9-4.14-11.25-3.37-6.21,1.11-13.23,7.46-19.68,4.48-5.29-2.43-8.86-9-15.08-9.59-4.38-.4-7.65,2.12-11.55,3.5-3.59,1.27-6.79,2.94-10.39,4.11-4.29,1.38-8.17,3.87-12.52,5.1-.7.2-2.78.9-3.73.58-1.33-.45-2.1-1.8-3.39-2.5-1.08-.6-2.45-.92-3.6-1.41a28.71,28.71,0,0,0-8.91-2.53c-2.53-.27-4.82-1.09-7.3-1.56-1.92-.36-4-.15-5.83-.84a19.62,19.62,0,0,1-7.57-5.87c-2.08-3.05-3.56-4-6.44-6-4.14-2.86-6.88-7.8-11.22-10.31-3.2-1.85-6.52-1.39-10-.37-2.12.62-3.64,1.59-5.81.79-1.63-.61-3.27-1.84-5-2.51-4.64-1.84-9.58-5.69-14.66-5.86a29.86,29.86,0,0,0-8.4,1.14,20.4,20.4,0,0,0-4.77,2.28c-1.77,1-3.61,1.61-5.45,2.58-2.69,1.43-4,4.65-6.52,5.83-3.07,1.42-7.56-.9-10.75-.8a6.94,6.94,0,0,0-2.61.48c-1.82.92-1.66,2.9-3,4-1,.85-2.56.85-3.65,1.89s-1.76,4.13-3.14,4.82c-1.66.82-4.52-.51-6-1.14-3.7-1.52-9-3.32-13.05-2.27-5,1.3-6.7,6.11-12.11,4.42-5.12-1.6-8.49,1.07-13.3,2.42a116.06,116.06,0,0,0-11.49,3.91c-1.93.77-3.85,1.38-5.72,2.3-1,.49-2.82.89-3.71,1.38-1.79,1-2.47,3.77-3.64,5.46a10.85,10.85,0,0,1-5.79,4.48c-3.28,1.15-7.21.6-10.61,1.7-4.77,1.56-8.84,4.63-13.67,5.94-5.23,1.43-9.44,1.27-14.24-1a28.42,28.42,0,0,0-9.18-2.48c-2.36-.3-4.69-1.49-7-1.36s-3.91,2.12-5.22,3.82c-.67.87-1.22,3-2.61,2.89-.34,0-1.21-1.19-1.55-1.4-1.2-.73-2.63-.87-3.86-1.57s-2.19-1.85-3.32-2.65c-3.32-2.34-6.7-4.79-10.44-6.2-1.69-.65-3.51-2-5.35-2.24-1.09-.17-1.87.25-2.92.21s-1.93-.63-3-.69c-1.88-.11-3.94.73-5.82.82a30.84,30.84,0,0,1-3.45-.38,42.53,42.53,0,0,0-13.59,1.64c-2.46.78-4.41,2.27-7,2.7-1.49.25-3.1.32-4.6.5a34.57,34.57,0,0,1-9,.37c-2.53-.34-4.17.58-6.49,1.34s-3.7.13-6.11-.05c-2-.14-3.64.29-5.67,0A46.77,46.77,0,0,1,89.65,262c-2.52-.67-5.36-.53-7.83-1.44s-3.36-1.34-6.18-.95c-4.2.57-8.41,1-12.62,1.56-5.05.63-9.58,2.47-14.47,3.77a52.89,52.89,0,0,1-6.56.76,6.78,6.78,0,0,1-4.72-.64c-.74-.31-1.72-.13-2.31-.37-1-.4-1.12-.88-2.07-1.47-2.08-1.3-4.1-3-6.44-4.07-2.51-1.11-7.61-2.64-10-1.66-5.78,2.34-11.86,4.71-17.82,6.6-4.18,1.32-9.15,1.32-13.5,1.89-4,.53-7.88-.05-11.91.49-5.26.7-10.73,1.81-16,1.79-1.61,0-3.26.09-4.91.13l2.17,17.48h-2.27V599H889.75V285.84Z" transform="translate(47.86 -217.95)"/><path class="cls-4" d="M59.42,264.41a31.42,31.42,0,0,0-6.65,2.69,20.14,20.14,0,0,1-3.11,1.4c-.81.24-.64.29-1.26.82s-3.34,1.59-3,2.64c.33,1.22,2.47.75,3.28.49.61-.2,1.4-.94,2-.83s.81.94,1.43,1.25a2.9,2.9,0,0,0,1.65,0c.71-.11.66-.2,1-.77s.93-1.42,1.4-2.13c.18-.27.57-.5.54-.87s-.32-.37-.34-.5C56.28,267.81,57.85,266.56,59.42,264.41Z" transform="translate(47.86 -217.95)"/><path class="cls-4" d="M74.46,261.18a13.41,13.41,0,0,1-2.91.76c-.65.07-1.29.17-1.93.24s-.91.46-1.5.57l0,.27-1.29.15c-1,0-2.09,1.35-2.63,2A11.82,11.82,0,0,1,62.24,267c-.22.19-1.18.84-1.25,1.13-.11.44.38.41.59.76s-.16,1.29.5,1.4c.43.08,1.45-.67,1.88-.83a17.87,17.87,0,0,0,1.89-.71c.47-.26.73-.72,1.14-1a11.34,11.34,0,0,1,2.77-1.31c.55-.24,1.08-.35,1.34-.86.37-.72.35-1.51,1-2.18s1.36-.58,2.21-.73c1.39-.24,2.65-1.32,3.94-1.86C77.32,260.11,75.35,260.88,74.46,261.18Z" transform="translate(47.86 -217.95)"/><path class="cls-4" d="M159.27,275.25c0-1.06-1.43-1.86-2.24-2.24-1.39-.66-2.76-1.26-4.12-2a7.94,7.94,0,0,0-1.47-.88c-.49-.11-1,.14-1.46.1a6,6,0,0,0-1.65-.09c-.56.07-1.12.15-1.68.2a2.18,2.18,0,0,1,2.08,1c.24.38.3.88.68,1.17s1,.16,1.44.51c.88.76,1,1.36,2.19,1.67,1.61.41,3.34.34,4.93.83.67.2,1.19.67,1.82.85a10.57,10.57,0,0,0,1.87.07,10.81,10.81,0,0,1,2.58.56,5.1,5.1,0,0,0,2.76.46c.49,0,.63-.1,1,.19s.46,1,1.13.85c.6-1.8-4-3-5.25-3.23C163.09,275.16,161.13,275.36,159.27,275.25Z" transform="translate(47.86 -217.95)"/><path class="cls-4" d="M226.11,278.57a14.84,14.84,0,0,0-3.84-.8,6,6,0,0,1-1.51-.15,14.39,14.39,0,0,0-1.68-.36c-.51-.06-1,.12-1.47.08a7.18,7.18,0,0,0-2.77,0c-.77.23-2.14,1.27-2,2.15,1.64.18,3.1-.3,4.53.79a21.09,21.09,0,0,1,2,1.75,15.91,15.91,0,0,1,2.43,2.35c.66,1,1,2.1,2.33,2.44.18-.66.72-1.82,1.48-2a2.69,2.69,0,0,1,1.69.44c.81.38,1.3,1.14,2.27,1.24.5.05,1-.19,1.47-.1a12.64,12.64,0,0,1,1.43.48,24.89,24.89,0,0,0,4.29.77,9.3,9.3,0,0,1,2.22.44,15,15,0,0,0,2.1.82,8.94,8.94,0,0,1,1.69.16,9.42,9.42,0,0,0,1.08.45c1,.21,2.31.67,3.28.28a1.9,1.9,0,0,0-1.57-2.4c-.49,0-.86.2-1.36.15a5.61,5.61,0,0,1-1.69-.61c-1.74-.73-3.68-.77-5.35-1.69-.86-.47-1.78-.78-2.57-1.28a4.36,4.36,0,0,1-1-.74c-.35-.39-.36-1-.78-1.32a9.86,9.86,0,0,0-1.74-.8,13,13,0,0,0-1.57-.7A29.84,29.84,0,0,1,226.11,278.57Z" transform="translate(47.86 -217.95)"/><path class="cls-4" d="M290.87,251.86a10.51,10.51,0,0,0-1.8-.1,17.26,17.26,0,0,1-2.13.28c-.36,0-1-.28-1.32-.2s-.41.47-.6.73a19.81,19.81,0,0,1-4.31,4.4c-1.28.94-2.34,2.26-3.71,3.07-.92.55-1.85.92-2.73,1.53-1.61,1.1-3.49,1.83-5.09,3a11.69,11.69,0,0,0-3,3.56c.41.16,1.1-.29,1.42-.43,1.17-.53,2.42-.92,3.57-1.49,1.83-.89,3.34-2.33,5.27-3a11,11,0,0,0,2.43-.79c2-1.26,3.91-3,6.34-3.36a3.53,3.53,0,0,1,1.71.05,2.83,2.83,0,0,0,.85.28c.69,0,1.49-.78,2-1.17a28.9,28.9,0,0,1,2.9-2c1.44-.81,2.93-1.5,4.41-2.23.53-.25,1.33-.24,1.37-1-.94-.31-2.53.29-3.41.67-1.39.6-2.82,1.19-4.25,1.68-1.14.4-2.32.49-3.47.9a15.34,15.34,0,0,1-2.63.66c1.58,0,2.5-1.33,3.72-2.11a12.29,12.29,0,0,1,2.54-.95,6.88,6.88,0,0,0,1.37-.79c.65-.42,1.33-.6,2-1,.41-.24.76-.56,1.17-.8s.84-.24,1.06-.62c-.49,0-1.06-.13-1.56-.13a2.65,2.65,0,0,0-1.27.34c-.57.22-1.41,0-1.74.6C292.07,251.46,292.14,251.56,290.87,251.86Z" transform="translate(47.86 -217.95)"/><path class="cls-4" d="M415.72,253.16c-1.4,0-3-1.37-4.4-1.08-.65.14-.8.46-.46,1.11a2.63,2.63,0,0,0,1.23,1c.22.07.54-.08.76,0,1.51.71-.48,2.62-.51,3.55,0,.47,0,1.07.44,1.25a8.32,8.32,0,0,0,2-.27,4.72,4.72,0,0,1,1.06,0c.69.07,1.46-.07,2,.43s.57,1.18-.08,1.59c-1.18.73-2.9.21-4.23.51-2.6.6-5.25,1.19-7.87,1.77a50.25,50.25,0,0,0-6,1.4,12.61,12.61,0,0,0-3.29,2.05,9.07,9.07,0,0,1-4.22,1.81c-1.86.26-3,.29-4.56,1.35-.6.41-3.36,1.74-3.25,2.5,3.89-.4,7.4-2.37,11-3.67,2.76-1,5.59-2,8.39-2.87,1.19-.36,2.34-.88,3.54-1.14s1.19-.55,2.25-.21c2.8.88,6.1-.25,8.85-.77a5.06,5.06,0,0,1,2.55-.15,8.63,8.63,0,0,0,3,.06c.51-.07,2.87-.1,3.17-.8.46-1.07-2.65-2.69-3.4-3.07-.92-.46-2.19-.44-2-1.67a2.64,2.64,0,0,0,.09-1.31c-.2-.72-.36-.64-1.09-1.13A23.52,23.52,0,0,0,415.72,253.16Z" transform="translate(47.86 -217.95)"/><path class="cls-4" d="M434.44,256.32c-1.08.14-2.15.28-3.23.4a23.06,23.06,0,0,0-2.38.62c-.59.13-1.41.39-1,1.22.53,1,1.48.38,2.31.59.28.55,0,1.25.3,1.8.87,0,2.49-.15,1.84,1.13a4.91,4.91,0,0,1-2.08,1.85,11.41,11.41,0,0,0,3.73-.14l5-.62c.58-.07,4.58-1.06,5-.21-.47.75-2.36.42-3.15.67-1.28.42-2.41,1.39-3.63,1.86-.82.31-1.77.66-2.62,1-1.25.52-2.48,1.13-3.71,1.69-.85.39-2.11.76-2.38,1.79.71,1.53,8.46-2.74,10.26-3.28a47.26,47.26,0,0,1,8.07-1.61l1.83-.22c1-.11,2-.62,3-.73.69-.07,1.36.17,2.06.12s1.28-.21,1.93-.23c-1.13-.15-2.29-1.25-3.34-1.69-2.23-.94-4.52-.44-6.84-.68a3.69,3.69,0,0,1-3-1.5c-.35-.62-.69-.7-1.26-1.14a14.3,14.3,0,0,0-2.89-1.76,5.41,5.41,0,0,0-2.34-.56C435.4,256.68,434.61,256.16,434.44,256.32Z" transform="translate(47.86 -217.95)"/><path class="cls-4" d="M452.35,284.71c.61.11,1.32-.66,1.74-1,.69-.58,1.42-1.12,2.09-1.73,1.69-1.57,3.58-3.11,5.11-4.83.85-1,1.6-2,2.42-3a30.55,30.55,0,0,1,3.37-3.15c.72-.62,1.64-1,2.33-1.66.87-.85,1.62-1.83,2.47-2.68s1.49-1.37,2.22-2.07a6.88,6.88,0,0,1,3.14-2c1.14-.21,1.12-.05,1.29,1s.47,1,1.39,1a11.46,11.46,0,0,1,.21,1.17,8.16,8.16,0,0,0,2.67-.28l2.19-.27a14.8,14.8,0,0,1,2-.27c.77,0,1.44.41,2.21.4a73,73,0,0,0-7.34,4.08c-.87.56-1.86.76-2.75,1.24s-1.24,1.51-1.84,2.42a7.75,7.75,0,0,1-4.64,3.31c-1.37.38-2.51-.38-3.9.36-2.77,1.49-4.53,4.61-7.37,6a7.6,7.6,0,0,0-1.6.89,14.49,14.49,0,0,1-3.33,1.56c-1.33.56-2.82.7-3.95,1.64a5.7,5.7,0,0,1-1.74,1.05c-.8.33-1.42,1.14-2.3,1.22.7-.46,1-1.47,1.57-2.1a12.35,12.35,0,0,1,2.67-2C452.46,285,452.26,285.05,452.35,284.71Z" transform="translate(47.86 -217.95)"/><path class="cls-4" d="M441.86,289.88c-1.59.06-2.66,1.27-4,1.86-.91.4-1.9.84-2.86,1.18-.64.22-1.31.39-2,.6s-.95.4-1.44.55a2.42,2.42,0,0,1-1.31,0c-.5-.14-.74-.56-1.33-.28a11.92,11.92,0,0,0-1.95,1.56,16.91,16.91,0,0,1-2.8,1.84c-1,.57-2.09,1.11-3.09,1.71a11,11,0,0,1-2.19,1.28,18.79,18.79,0,0,0-4.12,2.59c-1.39.93-4.44,2-5.24,3.63a2.81,2.81,0,0,0,1.37-.17,18.88,18.88,0,0,0,3.45-1.23,59.22,59.22,0,0,1,7.61-3.05c.77-.24,1.66-.56,2.39-.86a7.48,7.48,0,0,1,2.11-1c.72,0,.42.26.92.36,1.07.21,1.62-.17,2.5-1a38.94,38.94,0,0,1,3.69-3.09c.9-.6,2-1.14,2.89-1.7a16.39,16.39,0,0,0,2.63-1.94A10.84,10.84,0,0,0,441.86,289.88Z" transform="translate(47.86 -217.95)"/><path class="cls-4" d="M559.23,273.09l-.27-.16c-.32.16-.38.6-.45.92a9.42,9.42,0,0,1-.82,2.43c-.75,1.51-.75,3.33-1.83,4.69-1.41,1.78-5.07,3.4-4,6.2,2.14.27,4.13-1.65,6.31-1.33.39,1-.27,1.66-.27,2.61,0,.79.58,1.51.29,2.29-.16.45-.56.72-.55,1.24,0,1,1.09,1.65,1.8,2.21a11.38,11.38,0,0,1,2.91,4c.59,1.08.91,2.33,1.83,3.18.45.42.34.37.92.36a35.92,35.92,0,0,0,4-.49,25.24,25.24,0,0,0,4.64-.84,4,4,0,0,1,2.54.13c3.21.95,6.81,2.09,9,4.71.61.71,1,1.62,2,1.76.83.12,1.51-.4,2.28-.55,1.43-.26,2.22.61,3.37,1.13a6.31,6.31,0,0,0,1.72.28,22,22,0,0,1,2.84.94,31.35,31.35,0,0,0,5.06,1.13c1.86.24,3.88-.08,5.68.54.73.25,1.43.64,2.13.95,1,.42,2.16,1.16,2.83.12s-.39-2.44-1.12-3.09a17.74,17.74,0,0,0-4.29-2.36c-1.4-.67-2.86-1.21-4.21-2-3.4-1.88-6.45-4.41-9.68-6.57a39.53,39.53,0,0,0-6.71-4.13,24,24,0,0,0-6-2c-1.82-.21-3.93-.1-5.59-.95s-2.49-2.52-3.66-3.73-2.1-2.21-2.38-4.09c-.17-1.14-1-1.75-1.91-2.47a8.93,8.93,0,0,1-2.84-3.38,14.91,14.91,0,0,0-1.49-2.2C562.56,273.55,561.36,272.94,559.23,273.09Z" transform="translate(47.86 -217.95)"/><path class="cls-4" d="M304.58,241c.55.19,1.06-.09,1.64,0,.78.13,1.59.45,2.37.61a2.55,2.55,0,0,1,1.48.69c.4.45.31.89.42,1.49s.39.82.51,1.38-.44,1.55-1.16,1.48c-.47-.06-.76-1.29-1-1.67a2,2,0,0,0-1.25-1,3.43,3.43,0,0,0-1.92.57c-.89.53-.39,1-.47,2a4.18,4.18,0,0,1-.8,2.2c-.38.48-1,.81-1.32,1.34a12.33,12.33,0,0,0-.77,2.29c-.16.47-1.09,1.6-1,2a4,4,0,0,0,2.31-.6c1.48-.71,2.88-1.62,4.37-2.28s3-1.72,4.48-2.56c1-.57,2.12-.55,3.14-1a18.88,18.88,0,0,0,2.3-1.34,17.23,17.23,0,0,0,2.21-1.56c.41-.4.6-1.08,1.11-1.38s1.15-.25,1.56-.88c.28-.42.18-.9.44-1.3a4.06,4.06,0,0,1,1.33-1c-1.67.18-3.9-.84-5.19-1.37-3.7-1.52-9-3.32-13.05-2.27A13.08,13.08,0,0,0,302,239a5,5,0,0,1,1.13.68C303.61,240.12,304,240.78,304.58,241Z" transform="translate(47.86 -217.95)"/><path class="cls-4" d="M332.29,234.81a2.47,2.47,0,0,1-.14,1.25,5.19,5.19,0,0,0,1.41-.1c.52-.07,1-.38,1.45-.45.66-.1.53-.17.7.49a6,6,0,0,1,.11.95,4.62,4.62,0,0,1,.06,2.33c-.19.45-.44.84-.6,1.3a3.68,3.68,0,0,1-.23.66,6,6,0,0,1-2.06,1.95,8.91,8.91,0,0,0-2.31,2.47c-1,1.33-1.5,3-2.75,4.13-.76.69-1.61,1.33-2.41,2a19.71,19.71,0,0,1-2.71,1.69c-1.72,1-3.22,2.22-5,3.13-2.21,1.12-4.27,2.59-6.62,3.42-4.88,1.71-9.54,3.92-14.33,5.87a3.27,3.27,0,0,0-1.53.88c-.53.63-.73,1.47-1.3,2.12a21.06,21.06,0,0,1-4.79,3.42,37.08,37.08,0,0,0-3.09,2.4,23.26,23.26,0,0,0-2.53,2.43,4.89,4.89,0,0,1-2.19,1.1c.12.54-.72,1.43-1,1.83-.61.84-1.44,1.44-2,2.31-.22.33-.7.94-.56,1.36.67.19,1.59-.53,2.1-.88a29.6,29.6,0,0,0,4.73-4.5,7.29,7.29,0,0,1,3.12-2.21c.91-.29,1.89-.17,2.81-.43a29.42,29.42,0,0,0,3.66-1.78c1.38-.6,2.66-1.41,4-2a14.92,14.92,0,0,0,2.27-1.27,6.32,6.32,0,0,1,1.44-.93c.66-.2.58-.27,1,.37a5.43,5.43,0,0,1,.63.93,3.86,3.86,0,0,0,.22.81c.56.33,1.12-.73,1.34-1a7.86,7.86,0,0,1,4.69-2.61,2.42,2.42,0,0,1,1.68.09c.2.12.41.46.65.54a3.56,3.56,0,0,0,1.33-.14c1.49-.19,2.14.22,2.14,1.76,0,.45-.29,1.48,0,1.87s.5.2.65.45c.49.77-.11,2.81,1.59,2.19.8-.29,1.07-1.19,1.57-1.82.74-1,1.41-1.91,2.13-2.88s1.37-1.56,1.9-2.45a22.21,22.21,0,0,0,1.3-3.11,1.85,1.85,0,0,1,1.86-1.2c.9.1.86,1.17,1.63,1.42,1.91.64,1.44-3.53,2.58-4.15a2.11,2.11,0,0,1,.75-.07,6.09,6.09,0,0,0,1.83-.62c1.52-.76,3.23-1.46,4-3,1-2,.19-3.63-.22-5.68-.25-1.29-1.37-3.81-.7-5.06a12.49,12.49,0,0,1,2-2.1,14.62,14.62,0,0,0,2.22-3.08c.47-.86,1.18-2.13.66-3.11-.39-.76-1.36-1.35-1.87-2.1a5.8,5.8,0,0,1-1-2.52c-.1-.69-.33-1.18.07-1.75a15,15,0,0,1,2.33-2l.23-.2a14.34,14.34,0,0,0-3.46-.46,6.94,6.94,0,0,0-2.61.48c-1.82.92-1.66,2.9-3,4a2.61,2.61,0,0,1-.27.19,1.19,1.19,0,0,1,.22.33A4.36,4.36,0,0,1,332.29,234.81Z" transform="translate(47.86 -217.95)"/><path class="cls-4" d="M500.15,245.46c-.18.94-1.42,2-2.15,2.66a23.67,23.67,0,0,1-2.5,1.73c-1,.61-1.92,1.21-2.88,1.85a14,14,0,0,1-3.83,2.1,19.86,19.86,0,0,1,3,0c1.49-.15,2.88-.74,4.36-.9.95-.11.86-.05,1.14.67a1.69,1.69,0,0,0,1.65,1.2c1.32.11,3.49-1,3.13,1.2-.1.66-.43,1.05-.38,1.73,0,.48.13,1,.19,1.43s-.05.94.42,1.1,1.59-.27,2.09-.29c.87,0,1.73.24,2.6.26,1.44,0,2.72.2,4.17.33a21.62,21.62,0,0,1,3.4.41,6.38,6.38,0,0,0,1.86.44,1.24,1.24,0,0,0,1.32-1.21c.08-1.15-.67-1.57-1.53-2.11.8-1.07,2.59-.49,3.32-1.85.27-.5.31-.07.17-.71a4,4,0,0,0-1.27-1.62,8,8,0,0,1-1.71-.58c-5.29-2.43-8.86-9-15.08-9.59a10.49,10.49,0,0,0-1.68,0v0A9.9,9.9,0,0,1,500.15,245.46Z" transform="translate(47.86 -217.95)"/><path class="cls-4" d="M663.32,228.31a9.12,9.12,0,0,1,4.77,1.41c1.43,1.05,1.53,3,2.64,4.29a12.94,12.94,0,0,0,2,1.5,22.52,22.52,0,0,1,3,2.54c.91,1,1.26,2.39,2.08,3.5s2.43,1.8,3.71,2.61a20.25,20.25,0,0,0,4.7,2.62c1.7.52,3.48-.27,5.1-.8a20.91,20.91,0,0,1,5.69-.87,7.62,7.62,0,0,1,3.78,1,12.4,12.4,0,0,1,1.62,1c1.12.69,2.45.92,3.6,1.63a10.35,10.35,0,0,0,3.77,1.68c.72.14,1.46.2,2.19.33,1.6.31,3.21.28,4.8.54.82.13,2.95.2,3.48.83-.68,2.1-2.7,3.79-4,5.53-.33.46-.76.86-.52,1.3s2.31.73,2.8.84c1.35.32,2.6-.24,4-.14a16,16,0,0,1,4.75,1.12,17.13,17.13,0,0,0,4.47,1.42c1.85.24,3.88-.22,5.65.45,1.46.55,2.55,1.79,3.94,2.49a8.8,8.8,0,0,0,4.82.6c3.53-.34,7-1.24,10.51-1.69a28.67,28.67,0,0,1,7,0,62.35,62.35,0,0,1-7-3.3c-4.16-2.28-7.84-5.48-12.17-7.24-3.59-1.45-7.41-2.61-10.84-4.38-3.76-2-6.32-3.61-10.75-3.07-2.9.35-5.08.86-8,.07a29.39,29.39,0,0,0-4.95-1.24c-5.17-.5-11.81-3.05-15.66-6.87a41.87,41.87,0,0,0-6.58-5.75,17.91,17.91,0,0,1-4.33-3.52,16.79,16.79,0,0,0-5.4-3.93c-1.91-1-5.15-3.2-7.26-3.3-1.69-.09-3.16,1.3-4.75,1.7a50.16,50.16,0,0,1-5.61.64,16.41,16.41,0,0,0-3.46.51l-.31.11c.55.44,1.1.88,1.63,1.35C659.8,227.23,661,228.39,663.32,228.31Z" transform="translate(47.86 -217.95)"/><path class="cls-4" d="M577.33,256.84c1.54.21,3.16-.33,4.72-.44A8.23,8.23,0,0,1,585,257a25.36,25.36,0,0,0,3.93.8,3.48,3.48,0,0,1,2.62,1c.44.47.58,1.13,1,1.65.94,1.2,3.48.7,4.21-.58a4.44,4.44,0,0,0,.41-3.07,2.17,2.17,0,0,1,.61-2.24,21.45,21.45,0,0,0,2.41-3.12c.18-.33.38-.64.58-1-3.83.49-7.82-.74-11.74-.4-4.11.35-8.63,2.79-12.68,5.19a3,3,0,0,1,.08.56C576.46,256.64,576.53,256.73,577.33,256.84Z" transform="translate(47.86 -217.95)"/><path class="cls-4" d="M539,251.74c.24.5,1,.73,1.37,1.16.21.25.38.6.57.88a3.94,3.94,0,0,1,.82,2,3.38,3.38,0,0,1-.14,2.11,2.75,2.75,0,0,0-.34,2c.16,1.33.56,2.4,2,2.73s3.27,0,4.76.77c.73.36,1.35.86,2.14,1.19a24.51,24.51,0,0,1,2.69,1.28c1.2.68,2.52,1.19,3.76,1.8.71.34,2.34,1.09,3,.57A41,41,0,0,0,557.5,264c-.23-.47-1-1.15-.93-1.66.09-1.32,2.83-1.27,3.71-1.63.19-1.37-.89-2.33-1.85-3.08-.23-.19-.48-.37-.74-.57a7.31,7.31,0,0,1-1-.34,84.42,84.42,0,0,1-9.08-4.53,22.45,22.45,0,0,0-6.89-3.27C540.22,249.83,538.14,250.08,539,251.74Z" transform="translate(47.86 -217.95)"/><path class="cls-4" d="M366.44,221.23c.72.31.77.72,1.2,1.23,1.94,2.32,5.77-.34,8.25.82a19.9,19.9,0,0,1,3.71,1.8c1.12.89,1.23,2,2.91,1.92a20.71,20.71,0,0,1,3.05-.15,6.71,6.71,0,0,1,2.44.67,3.73,3.73,0,0,1,1.5.85c.37.42,1.32,1.17,1.09,1.77-.43.16-.88.11-1.32.25a18.33,18.33,0,0,1-1.8.82,8.35,8.35,0,0,1-1.67.48c-.5,0-.93-.37-1.42-.4a2.77,2.77,0,0,0-1.26.29,15.48,15.48,0,0,1-1.91.42,11.09,11.09,0,0,0-2.33,1.05,6.14,6.14,0,0,0-1.54.76c0,.59.73.77,1.16.85,1.39.27,2.81-.06,4.2.35a8.54,8.54,0,0,1,3.25,2.43c1.23,1.21,1.8,2.69,2.87,4a5.6,5.6,0,0,0,1.81,1.61l1.25.47a6.62,6.62,0,0,1,.88.79,9.63,9.63,0,0,0,2.73,1.7c1.67.34,3-1.29,4.4-1.8,1.58-.59,2.39.05,3.72.79a3.45,3.45,0,0,0,1.06.51,3.27,3.27,0,0,1,1.21-.08,1,1,0,0,0,.67.13c0-.3,0-.59,0-.89a9.64,9.64,0,0,1,4.71-.14c.38.05.75,0,1.1,0a5.2,5.2,0,0,1,2.2,1.07,5.33,5.33,0,0,0,2.43.91,2,2,0,0,1,1.57.68c.75.67,1.3,1.54,2.09,2.16a10.44,10.44,0,0,0,2.77,1.28c2.22.87,4.3,1.94,6.58,2.65a30.53,30.53,0,0,0,6.6,1.26c2,.13,3.82,1,5.82,1.28,1.77.22,3.6.07,5.4.31a4.53,4.53,0,0,1,2,.52c.43.34.4.72.56,1.21.37,1.17.37,1.84,1.68,2.09a19.53,19.53,0,0,1,3.43.47c.56.22.35.2.78.62a4.83,4.83,0,0,0,2.28,1c1.15.14.74-.66.37-1.29a3.65,3.65,0,0,0-2-1.76c-.91-.25-1.06,0-1.65-.67-.42-.53-.75-1.12-1.19-1.62-.22-.26-.51-.32-.42-.78a3.07,3.07,0,0,1,1.44.11c.85.07,1.69.1,2.54.09s1.05.56,1.69.78c.83.28,1.64-.11,2.49.06a3.69,3.69,0,0,0,2.42.09,2.27,2.27,0,0,1-.81-.07c-1.33-.45-2.1-1.8-3.39-2.5-1.08-.6-2.45-.92-3.6-1.41a28.71,28.71,0,0,0-8.91-2.53c-2.53-.27-4.82-1.09-7.3-1.56-1.92-.36-4-.15-5.83-.84a19.62,19.62,0,0,1-7.57-5.87c-2.08-3.05-3.56-4-6.44-6-4.14-2.86-6.88-7.8-11.22-10.31-3.2-1.85-6.52-1.39-10-.37-2.12.62-3.64,1.59-5.81.79-1.63-.61-3.27-1.84-5-2.51-4.64-1.84-9.58-5.69-14.66-5.86a29.86,29.86,0,0,0-8.4,1.14,20.53,20.53,0,0,0-4.74,2.26c1.15,0,2.3,0,3.46-.12A4.48,4.48,0,0,1,366.44,221.23Z" transform="translate(47.86 -217.95)"/><path class="cls-4" d="M93.49,263.56a3.84,3.84,0,0,1-1.36.67c-.47.09-1,0-1.45.16a15.74,15.74,0,0,1-1.55.54c-.48.09-1,.11-1.48.17a10.61,10.61,0,0,0-2.87.51,5.86,5.86,0,0,0-2.62,1.86,4.7,4.7,0,0,1-1.32,1c-.22.15-.81.59-.84.76,1.08.37,2.47-.93,3.45-1.26s1.85-.46,2.75-.79c.42-.16.64-.54,1-.21,0,0,.36.81.37.82.27.67.08,1.48.32,2.15.6,1.73,3.13-.92,3.74-1.39a8.78,8.78,0,0,1,1.64-1,1.79,1.79,0,0,1,1.53-.17,3.52,3.52,0,0,0,1.33-.12,21.64,21.64,0,0,1,2.18-.85c.69,0,1.57,1.19,2.13,1.65a9.94,9.94,0,0,0,3,1.27,28.09,28.09,0,0,1,2.92,1.85c.51.28,1.09.28,1.61.57s.81.83,1.25,1.4a17.6,17.6,0,0,1,1.38,1.6,9.84,9.84,0,0,1,.7,1.94c.39,1.07,1.37,1.75,1.67,2.84a2.83,2.83,0,0,0,2.24,2.44c2,.84,3.2,2.23,4.79,3.56a13.85,13.85,0,0,0,2,1.13c.41.23.92.75,1.43.42s.43-1.53.41-2a3.85,3.85,0,0,0-.25-1.38c-.15-.29-.49-.45-.63-.71-.29-.53-.07-1,.08-1.52a2.68,2.68,0,0,0,0-1.95c-.25-.65-.27-1.2-.46-1.87s-.86-1.31-1.23-2c-.58-1.13-1.28-2.18-1.87-3.31a7.15,7.15,0,0,1-.44-1.63,7.32,7.32,0,0,1,1.91,1.77,27.46,27.46,0,0,0,3,2.76c.32.28.92,1.08,1.4,1.1s.91-.87,1.2-1.16a7.42,7.42,0,0,1,1.12-.89,21.38,21.38,0,0,1-1.64-1.38,11.94,11.94,0,0,0-1.18-1.38c-.29-.26-.73-.4-1-.71a2.64,2.64,0,0,1-.28-.77,2.12,2.12,0,0,0-.74-.89c-.46-.39-1.3-.88-1.51-1.43a4.69,4.69,0,0,1,2.81-.95c.34.87,0,1.49,1.24,1.78s2.53-.39,3.64.46a6,6,0,0,0,2.53,1.46c.65.13,2.47.44,3.18.08a5.24,5.24,0,0,0-.25-2.4c-.51-1-2.5-.73-3.45-1.16a4.51,4.51,0,0,1-2-1.63c-.25-.5-.3-.31,0-.86.43-.79,1.62-1.18,2.22-1.8s.69-1.93,1.22-2.8a5.23,5.23,0,0,1,.89-1.12c-1.85.79-3.53,1.82-5.61,2.17-1.49.25-3.1.32-4.6.5a34.57,34.57,0,0,1-9,.37c-2.53-.34-4.17.58-6.49,1.34s-3.7.13-6.11-.05c-2-.14-3.64.29-5.67,0l-.2,0A5.73,5.73,0,0,0,93.49,263.56Z" transform="translate(47.86 -217.95)"/><path class="cls-4" d="M6.05,263a6.67,6.67,0,0,0,2.76-.74c1-.53,2.92-1.35,4.09-1.09.36.08.46.35.76.5s.77,0,1.09.24.07.62.27,1,.72.4,1.07.45c1,.15,2.88-.21,3.62.55.19.21.2.53.45.76a9.55,9.55,0,0,0,1.44.88c.56.31.67.27.77.94a2.69,2.69,0,0,1,0,1.13c-.09.38-.44.77-.39,1.17.06.56.93,1.3,1.39,1.47,1.29.49,2.78.15,4.09.09a4.06,4.06,0,0,1,2,.57c.81.41.75,1,1.27,1.63a12.31,12.31,0,0,0,1.24,1c.64.58,1.13,1.24,1.79,1.82a9.56,9.56,0,0,0,1.32,1.14c.89.5,1-.07,1.72-.7A17.45,17.45,0,0,1,39.17,274c.41-.26,1.89-.68,2-1.19s-.23-.66,0-1.13c.36-.73,1.64-1.51,2.27-2.07,1-.87,1.49-1.46,2.81-1.63,1.91-.24,3.35-1.92,4.69-3.16.3-.28.59-.56.88-.86-1.09.34-2.18.66-3.3,1a52.89,52.89,0,0,1-6.56.76,6.78,6.78,0,0,1-4.72-.64c-.74-.31-1.72-.13-2.31-.37-1-.4-1.12-.88-2.07-1.47-2.08-1.3-4.1-3-6.44-4.07-2.51-1.11-7.61-2.64-10-1.66-4.92,2-10.06,4-15.16,5.73A19.35,19.35,0,0,0,6.05,263Z" transform="translate(47.86 -217.95)"/><path class="cls-4" d="M280.77,244.25c0,.82,1.27,1.12,1.25,1.94,0,.58-.54.7-.8,1.13a9.15,9.15,0,0,0-.42,1.54c1.16,1,3.5-.64,4.76-.86a8.53,8.53,0,0,1,2.71-.18,12.63,12.63,0,0,0,1.72.3,12.3,12.3,0,0,0,4.06-.44,9.85,9.85,0,0,0,1.21-.2c.47-.23.38-.62.5-1,.32-1.2,1.22-1.81,1.9-2.75.39-.54.25-.32.23-1.05a2.4,2.4,0,0,1,.6-1.45,6.23,6.23,0,0,1-4.24,0c-5.06-1.58-8.42,1-13.14,2.37A1.2,1.2,0,0,0,280.77,244.25Z" transform="translate(47.86 -217.95)"/><path class="cls-4" d="M195.21,265.32a8.43,8.43,0,0,1,1.12.66,1.49,1.49,0,0,1,.67,2.15c-.22.62-.3.78.35,1.27a20.69,20.69,0,0,0,2.77,1.43c1.68.92,3.87,1.26,5.23,2.59a31.7,31.7,0,0,0,2.48,2.26c.56.45,1.21,1.2,1.95,1.33a5.06,5.06,0,0,0,2.47-.7,4.52,4.52,0,0,0,2.3-1.47,7.22,7.22,0,0,1,1.78-1.75c.48-.31,1.26-.31,1.63-.78s.32-1,.75-1.44a12.75,12.75,0,0,1,1.35-1.15,18.37,18.37,0,0,1-8-1.91,28.42,28.42,0,0,0-9.18-2.48c-2.36-.3-4.69-1.49-7-1.36a4.24,4.24,0,0,0-1.33.31,1.39,1.39,0,0,0,0,.3C194.6,265.09,194.83,265.13,195.21,265.32Z" transform="translate(47.86 -217.95)"/><path class="cls-4" d="M164.31,258.5a3.43,3.43,0,0,1,1.3,1.62c1.32,2.58,4.82,2.81,7,4.45a7.41,7.41,0,0,1,1.3,1.38c.59.82,0,.88-.72,1.45s-.54.76-1.38.82-.77-.24-1.33-.82a1.8,1.8,0,0,0-1.76-.42,6.31,6.31,0,0,1-3.31-.22c-1.39-.51-3.83-1.73-5.35-.91.19.39.63.45,1,.66.53.29,1,.69,1.48,1,1,.6,2.15.83,3.07,1.52a16.39,16.39,0,0,0,1.62,1.38,11.51,11.51,0,0,0,1.65.58c1,.35,2.2.44,3.15.88,1.25.57,2.79,1.07,3.6,2.15a12.56,12.56,0,0,0,2.45,1.84,9.71,9.71,0,0,1,2.29,3.23c.3.59.32,1.47.77,1.91a5.79,5.79,0,0,0,3,.78c1.59.09,3.33-.8,4.89-.53a11.33,11.33,0,0,1,1.85.84,10.51,10.51,0,0,0,2.42.56c1.93.24,3.82-.48,5.66.3a16.09,16.09,0,0,0,6.23,1.56c3.4.09,6.8.17,10.2.35-.47-1-2.29-1.52-3.23-1.83a22.54,22.54,0,0,1-2.79-.87,20.59,20.59,0,0,0-2.13-1,19.76,19.76,0,0,0-3.61-.13,12.39,12.39,0,0,1-4.9-1c-.87-.43-2.4-.56-3-1.29-.4-.43-.29-1-.45-1.51-.38-1.17-1.9-2.29-2.88-3a18.06,18.06,0,0,1-2.72-2.39,14,14,0,0,1-.88-1.19l0,0a1.11,1.11,0,0,1-.58.1c-.34,0-1.21-1.19-1.55-1.4-1.2-.73-2.63-.87-3.86-1.57s-2.19-1.85-3.32-2.65c-3.32-2.34-6.7-4.79-10.44-6.2-1.69-.65-3.51-2-5.35-2.24a3.56,3.56,0,0,0-1.13,0,4.19,4.19,0,0,0,.4.79A4.66,4.66,0,0,0,164.31,258.5Z" transform="translate(47.86 -217.95)"/><path class="cls-4" d="M802.26,269.17c-5.14.05-9.67-1.59-14.68.36-4.27,1.66-7.71,5-12,6.61-8,3.1-17,4.26-25.83,5.33-5.08.61-9.55,2.27-14.27,3.91-2.38.83-4.77,2-7.2,2.85-3,1.06-6.1,3.25-9.12,3.84a78.1,78.1,0,0,0-14.83,4.9,77.2,77.2,0,0,0-7.18,3.84c-1.08.58-3.1,2.27-4.31,2.22,3.11-.49,6.25-.8,9.37-1.18s7.88-2,10.83-.66c.86.38,1.11,1.51,1.95,1.81a6.92,6.92,0,0,0,2.93-.18c4.23-.48,8.46-1.07,12.69-1.59,2.71-.33,5.6-1.15,8.26-.57,2.49.53,3.83,1,6.5.69,1.5-.2,4.35.2,3.67-1.87-.82-2.48-7.21-1.49-9-3,1.74-1.84,5.81-2.16,8.1-3.17,1.85-.82,3.77-2.12,5.72-2.69a21.28,21.28,0,0,1,2.78-.26c3.32-.49,4.9-1.74,7.38-3.93,2.11-1.86,3-2.55,5.9-2.37,1.91.12,4.08.85,6,.07,1.7-.69,1.58-1.45,2.75-2.73a33.58,33.58,0,0,1,3-2.93c1.7-1.38,3.27-1.12,5.25-1.79,2.21-.74,4.28-2.44,6.39-3.26,2.33-.9,5.05-.25,7.34-1.07C802.85,271.55,803.93,269.69,802.26,269.17Z" transform="translate(47.86 -217.95)"/></g></svg>