<svg id="Dark_green_background" data-name="Dark green background" xmlns="http://www.w3.org/2000/svg" viewBox="0 0 2395.04 597.01"><defs><style>.cls-1{fill:#639d91;}.cls-2{fill:#4e8477;}.cls-3{fill:#4e7f73;}</style></defs><title>dark green</title><path class="cls-1" d="M104.84,533.19c14.19,6.07,26.21,16.23,41,20.94,35.29,11.23,72.06-11.39,109.21-14.67,90.21-8,150,94.48,239.41,108.31,119.79,18.52,203.78-125.32,324.81-134.59,62-4.75,120.67,27.34,182.75,31.13,87,5.31,171.46-45.18,257.44-32,20.72,3.18,40.94,10,61.94,10,41.25-.05,76.28-25.94,112.63-44,103.22-51.33,239.42-38.6,329.5,30.81,27,20.82,51,46.67,83.9,58.2,55,19.31,116.2-7.46,163.38-40.06s91.53-72.88,148.75-85.61c76.39,133.92,99.3,293.36,63.39,441.15-8.59,35.37-22.22,72.51-53.71,94-25.94,17.73-59.58,21.78-91.62,25-727.34,73.6-1461.89,22.44-2191.47-28.78-12.64-.89-26.75-2.45-34.79-11.54-7.25-8.19-7.14-19.84-6.67-30.42q5.2-116.18,10.39-232.34c2.05-45.81,9.74-119.25,63.2-140.32,26.12-10.3,59.26-12,86.94-20C37.23,529.2,72.53,519.38,104.84,533.19Z" transform="translate(155.5 -441.64)"/><path class="cls-2" d="M708.72,597.83c4.61,1.81,9.75,1.36,14.68.88l138.07-13.44A25.56,25.56,0,0,1,856,609c-2.21,2.46-5,4.72-5.64,8-1.52,8.29,10.89,10.8,19.2,9.42A1336,1336,0,0,0,1043,585.52c8-2.47,19.92-2.89,21.49,5.35.63,3.3-1,6.69-.46,10,2,12.49,25.52,5.32,31.69,16.36,4.14,7.42-3.16,17.3.55,24.95,2.78,5.74,10.82,7.16,16.71,4.69s10.11-7.68,14.07-12.68c10.16,2.27,13.51,16.42,8.52,25.55s-15.06,14.13-24.69,18.09c-23.58,9.7-53.35,15.65-72.41-1.27-3.26-2.9-6.14-6.42-10.14-8.15-5-2.17-10.76-1.1-16.2-.57-16,1.56-32.07-2-48.16-2.63s-33.62,2.25-44.69,13.93c-4.26,4.49-7.32,10.05-11.82,14.3-14.75,14-38.21,9.51-58.31,6.52-43.83-6.53-89.23-1.29-130.77,14.16-40.74,15.14-77.63,39.79-119.12,52.74-52.84,16.49-109.56,13-164.8,9.34-3.61-.24-7.72-.74-9.81-3.7-3.48-5,1.53-11.22,3.46-17,2.65-7.89-.94-16.45-.67-24.77.56-17,16.45-29,31.23-37.48,42.92-24.51,89.59-41.21,134.13-62.39,22.53-10.71,44.78-22.47,65.1-37,7.19-5.15,14.33-13.8,23.82-13.55C693.69,580.65,698.7,593.91,708.72,597.83Z" transform="translate(155.5 -441.64)"/><path class="cls-3" d="M93.4,582.11c7.67,1.08,15.59.1,23.15,1.8S131.73,591.27,132,599c.1,3.31-1.15,6.49-1.68,9.75-1.95,12,6.32,23.73,16.71,30.06s22.67,8.57,34.45,11.61c17.13,4.41,33.71,10.69,50.25,17,3,1.13,6,2.3,8.39,4.44,3.71,3.38,5.08,8.54,7.21,13.09,12,25.75,49.14,33.52,58.25,60.44-9.59,11.76-28.94,13.85-40.83,4.42-5.09-4-8.8-9.77-14.34-13.18-11.76-7.24-27-1.85-39.37,4.27-21.84,10.81-44.33,23.94-68.63,22.22-9.86-.71-19.35-3.86-29-5.86A125.46,125.46,0,0,0,57,758.57a222,222,0,0,1,62-23c11.54-11.31.89-32-13.82-38.73s-31.88-5.75-46.9-11.69c-31.37-12.42-43.81-49.58-50.9-82.57-4.8-22.38-2.84-60.3,29.13-62C61.32,539.29,66.5,578.33,93.4,582.11Z" transform="translate(155.5 -441.64)"/><path class="cls-2" d="M1459.62,508.76a222.86,222.86,0,0,1,81.23-12.91c5.4.15,11,.55,15.78,3,5.13,2.68,8.78,7.46,12.45,11.94a206.81,206.81,0,0,0,43.08,39.56c12.83,8.8,26.74,16.22,38.07,26.87s20,25.55,18.6,41c-1.54,16.29-14,31.18-11.1,47.29,2.73,15.36,18.14,24.79,32.56,30.75A237.17,237.17,0,0,0,1812.44,712c11.09-1.52,23.2-4.56,29.47-13.83a35,35,0,0,1-13.9-30.86c-9.38-4.23-21.89,2.59-23.41,12.76-.41,2.71-.19,5.64-1.6,8-1.29,2.16-3.69,3.35-6,4.36a110.09,110.09,0,0,1-24.73,7.47,35.26,35.26,0,0,0-20.49-14.27c5.43-4.64,4.32-13.73,0-19.4s-10.92-9.07-16.69-13.27c-36.29-26.41-42.36-86.06-84.35-101.93-9.43-3.56-19.8-4.38-28.93-8.66-29.56-13.87-34.38-56.81-62.31-73.72-10.44-6.32-23-8.18-35.22-8.12,19.13-.1-127.53,43.48-104.75,32.52-10.56,5.08-64.93,21.62-38.82,38.48C1398.36,542.92,1442.17,515,1459.62,508.76Z" transform="translate(155.5 -441.64)"/></svg>